<svg viewBox="0 0 1080 1080" xmlns="http://www.w3.org/2000/svg" id="best_protection_warranty"><defs><style>.cls-1{fill:#efca87;}.cls-2{fill:#72ccd1;}.cls-3{fill:#6cad8a;}.cls-4{fill:#f9f1cb;}.cls-5{fill:#9a702d;}.cls-6{fill:#f2d0b9;}.cls-7{fill:#483613;}.cls-8{fill:#e8a1a4;}</style></defs><title>best protection warranty</title><path d="M665.36,563.53a5.63,5.63,0,1,1-5.63-5.63A5.63,5.63,0,0,1,665.36,563.53Z" class="cls-1" id="path1416"></path><path d="M665.36,598.62a5.63,5.63,0,0,1-5.63,5.62h0a5.62,5.62,0,0,1-5.62-5.62h0a5.63,5.63,0,1,1,11.25,0" class="cls-1" id="circle1418"></path><path d="M719.2,692.1a5.63,5.63,0,0,1-5.63,5.62h0A5.62,5.62,0,0,1,708,692.1h0a5.63,5.63,0,1,1,11.25,0" class="cls-1" id="circle1420"></path><path d="M719.2,727.19a5.63,5.63,0,1,1-5.63-5.63,5.63,5.63,0,0,1,5.63,5.63" class="cls-1" id="circle1422"></path><path d="M334.69,368.26S298.53,393.17,292,400s-4.42,7.9-3.88,7.9,22-1.87,23.7.27,10.32,29.33,17.41,33.08,17.29,8.1,13.8,4.28-12.32-48.35-11.38-55.71,3.08-21.57,3.08-21.57Z" class="cls-2" id="path1389"></path><path d="M380.09,356.87a125.25,125.25,0,0,0-6.43,47.41c1.61,26.39,6.43,50.23,15.13,64.29s36,48.08,45.81,58.39,52.1,43,62.68,62.15,5.09,51.56,15,56.65S545,640.13,547.77,614s-3.48-51-25.18-62.95-44.87-33.21-45-33.75-21.83,10.18-30.81,4.56-7.9-36-7.9-36,20.36.81,27.59-9.24,12.06-9.51,5.09-19.55-10.85-41.52-14.33-51.43-6.69-18.89-24.77-25.58-52.37-23.18-52.37-23.18Z" class="cls-2" id="path1391"></path><path d="M346.34,515.44s2.54,28.13-.54,46.08-19.42,26.92-19.42,26.92-4.69.13,2.81-10.58S347.14,524,347.14,524Z" class="cls-2" id="path1396"></path><path d="M386.38,601.7S370.85,609.06,355,604s-29.73-6.3-31.2-4.42-22.1,33-32.28,54.91-13.26,24.65-10.18,37.23,18.08,60.81,21,68.57,4.42,9,1.47,14.47,9.24,7.63,16.07,6,7.9-6.16,7.9-11.52-4-86-4-86L353,650.57l32.14-29.46s26.65-1.88,33.62,3.88,35.49,50.49,55.58,78.62,43.39,55.44,49.55,61.87-2.54,7.64-2.54,7.64-8,3.75.27,12,25.87,5.58,26.92,3,8-3.48,4-13.8-25.45-43.79-25.45-43.79l-24.64-51.7L460.85,578l-4.56-12.19s-19,20.63-33.48,26.93-36.43,9-36.43,9Z" class="cls-3" id="path1398"></path><path d="M697.66,357.94s-18.18-5.3-19.51.38,1.33,19.13-5.68,23.86-29.36-3.78-29.36-3.78-20.45-9.86-22,12.68-6.06,58.16,8.15,62.88,64,2.28,64,2.28,7.2-8.71,6.63-30.12-2.27-68.18-2.27-68.18Z" class="cls-4" id="path1406"></path><path d="M783.27,540.52s-47.92.57-74.06,1.14-53-.19-54.54,1.33,0,57-1.33,73.68-11.74,31.44,6.25,34.47,73.68-6.25,79.93,7.39,1.7,76.32,1.89,90-.94,17.43-.94,17.43l37.88-9.47,2.27-58.53Z" class="cls-4" id="path1400"></path><path d="M575.5,659.09s1.51,27.28,32.57,28.79,50.38,15.91,50.38,33.34V761a76.46,76.46,0,0,0-47.74-8.89c-27.05,4-38.17,0-38.17,0Z" class="cls-4" id="path1404"></path><path d="M697.66,357.94s37.34-3.61,43.23,2.28,6.69,92.14.8,95.63S709,458.52,709,458.52s4.29-39.64,4.29-58.39-6.7-37.77-13.13-37.23-2.51-5-2.51-5Z" class="cls-4" id="path1408"></path><path d="M804.11,622.92l-.38,43.56s11.36,2.08,16.1,4,.18,12.88,3,19.89,6.81,9.94,4.64,12.4-12.6,7.39-15.34,17.62a162.69,162.69,0,0,0-4.45,21.21c-.1,1.8,6.34,2.65,9.94,7s7.76,16.57,8.52,17.89,15.06-4,18.18-10.22-13.92-6.25-18.08-10.33a42.36,42.36,0,0,1-6.44-7.95s18.18,4.45,22,2.75,15.91-13.17,15-21.41-11.46-4-21.49-7-6.54-6.34-6-7.1,14.49-1.8,18.56-2.46,4.65-2.84,7.77-15.72-5.31-18.94-14.59-12.79-16.47-.09-16.47-.09,14.68-10.32,17.52-12.12,7.1-4,4.26-14.4-16.29-19.13-24-10.7-18.27,10.52-18.09,9.85,12.22-17,14.21-18.85,11.08-7.47,11.08-7.47,2.84-7.49-2.08-6.73-23.4,9.19-23.4,9.19Z" class="cls-4" id="path1410"></path><path d="M617.35,832.4s7.58-7.77,5.87-15.72-1.7-37.13,11.18-41.86,19.7.57,28.22,5.49,13.64,18.75,21.21,32.77S697.47,832,697.47,832Z" class="cls-4" id="path1412"></path><path d="M601.82,827.47c-.76-.94-9.66-26.32-17.23-40.91s-29.74-8.71-29.74-8.71-3.69,11.27-2,14.21,31.06,31.63,32.38,33.23,7.58,4.65,8.53,4.46,7.39-.67,7.39-.67Z" class="cls-4" id="path1415"></path><path d="M499.17,795.46c-34.66-22-54.17-20.83-54.17-20.83s-2.27,1.14-15.35,4.92-42.8,29.36-50.94,35-20.46,15.16-20.46,15.16,77.09,1.89,99.63,1.7,53.22-.57,58.71-.76,9.28-13.26,8.71-22-13.06-9.28-24.24-2.08-28.79,13.64-28.79,13.64l-5.49-3.6Z" class="cls-4" id="path1417"></path><path d="M712.62,821.41c-.94.38-8.9-9.09-2.08-22.16s22.73-25,30.5-21,7.76,15.15,5.3,19.32S723.42,815,723.42,815s14.4,8.9,23.87-1.89S762.44,790,764,780.88s25.76-20.27,38.07-21.4,1.52,45.64-2.65,51.52-20.27,21.78-20.27,21.78l-58.71-2.84Z" class="cls-4" id="path1419"></path><path d="M258.26,433s-10.44,38.23-7.6,65.69c1.74,16.79,1,36.65.16,49.58-22.07,1.06-44.85-8.83-44.85-8.83s15.54,58.4,58.94,53.84,64.28-96.42,64.28-96.42l-.58-27.05-20-5.37s-5.63,49.29-29.47,72.86a34.32,34.32,0,0,1-9,6.4c-5.1-14.51-12.9-41-12.77-66.79.2-38.25,1-43.91,1-43.91Z" class="cls-4" id="path1421"></path><path d="M289.28,288.17s-3.08-11.52.54-15.14-10.31-9.37-3.62-23.17,15.54-15.8,15.54-15.8,8.7-4.42,8.7-2.95-1.2,11.12-1.2,11.92,4,2.55,11.52-8.17S334.55,224.28,347,225s15.4,3.75,16.2,4.69S370,235,371,236.74s-7.5,8.84-4.82,10.45,20.76,7.63,19.56,14.33-6.43,9.77-4.82,12.45,11.38,4.69,10.71,18.35-2.81,21.3-2.94,25.18,2.81,11.92-3.08,16.74-10.18,8-13,6.83-10.86-4.69-10.86-4.69,2.95-18.48,2.95-19.55,10.31-2.54,13.8-5.76,2.81-12.72-.81-15-8.44-3.22-9.24-2.14-8,14.06-11,16.2-6.3,1.47-7.64-3.48-1.07-9.38-2.81-12-7.36-3.22-7.63-3.89,9.1-16.34,9.1-16.34a27.25,27.25,0,0,1-22,10.31c-14.33-.39-12.06-11.38-15.14-11.78s-8.7,4.69-10.71,5.76S289.28,288.17,289.28,288.17Z" class="cls-5" id="path1427"></path><path d="M687,286c-4.71,0-9.42,4-11.07,10.09-1.44,5.29-.82,16.39,1.12,20.45a10.39,10.39,0,0,0,3.89,4.16c4.57,2.27,10.37-.74,13.8-7.19s.87-24-3.84-26.52A8.25,8.25,0,0,0,687,286Zm-.66,6.48c.42,0,.85.34,1.5,1,2.49,2.49,2.28,16.59-.29,19.44-2.43,2.68-4.6,2.7-4.6,0a10.42,10.42,0,0,0-1.08-4.09c-1.52-2.84-.18-11.25,2.31-14.4,1.06-1.35,1.61-2,2.16-2Zm-97.16,6.69a7,7,0,0,0-4.77,2.3c-3.13,3.12-3.24,8.3-.33,14.32,2.41,5,11.5,14.75,15,16.16,6.58,2.64,12.31-.29,12.14-6.19-.13-4.66-2.39-9.22-8.12-16.33S593,299,589.22,299.12Zm191.42,1.71c-5.65-.1-13.65,5.08-18.79,13.08-3.63,5.64-4,13.88-.86,17.06,2.34,2.34,6,2.56,9.8.6,4.06-2.11,16-14.9,16.76-18,.88-3.51-.15-8.52-2.23-10.81a6.22,6.22,0,0,0-4.68-1.95Zm-190.8,5.24a6.39,6.39,0,0,1,2.1.87c2.24,1.2,11.55,13.69,12.49,16.77.56,1.82.31,2.25-1.3,2.25C598.71,326,589,314,589,308.63c0-1.84.11-2.59.85-2.56ZM780,307.3c1,0,1.21,1,1.21,3.3,0,2-1.65,4.31-6.52,9-8.33,8.09-10.3,8.4-8.5,1.34,1-4.15,6.37-10.22,11.11-12.68A6.83,6.83,0,0,1,780,307.3Zm-32.54,34.23-65.15.07c-62.56.06-65.27.14-68.46,2-6.1,3.56-6.82,6-7.5,26-.35,10.19-.09,27.6.6,40.4.68,12.38,1.34,25.44,1.48,29,.34,8.81,3.09,14.11,8.75,16.85,3.74,1.81,7.07,2.17,26.28,2.86,12.1.44,41.4.93,65.1,1.11l43.11.31,2.8-3.32c5.5-6.53,5.77-8.12,6.81-40.07,1.22-37.25.19-59.07-3.1-65.82a14.94,14.94,0,0,0-6.47-7Zm-120.1,5.83c4.6-.09,4.47,1.85,4.77,13.68l.33,12.89c.21,4.15,3,6.53,6.54,6.53l11.73-.08c19.06-.13,20.55-1.55,21.08-20.07l.35-12.25,10.15.59c5.58.32,10.7,1,11.38,1.56,2.5,2,2.84,8.17,2.81,51,0,50.58.75,46.89-10.66,49.34h0c-6.53,1.4-41,1.7-58.78.5-12.38-.83-12.38-.81-13.24-25.86-1.34-38.67-1.62-67.47-.69-70.82,1.18-4.3,4-6.17,10.22-6.7,1.63-.14,3-.27,4-.28Zm10.7.61H666l-.37,11.59c-.22,6.82-.84,12.06-1.51,12.72-1.85,1.85-21.17,2.16-23.54.38-2.19-1.63-3.26-9.07-2.75-18.94Zm62.81,0h22.91c21.46,0,23.07.12,25.48,2,5,3.93,5.2,6.13,5.2,52.49,0,39.3-.15,43.28-1.77,46.25-1,1.78-1.88,3.34-2,3.45-.4.35-51.89,1.31-52.23,1-.18-.18.63-2,1.81-4,2-3.3,2.21-5.66,2.86-26.16.4-12.39.34-32-.12-43.53s-.81-21.68-.78-22.5a34,34,0,0,0-.65-5.25ZM580,379c-.87,0-1.83,0-2.89,0-11.93.16-18,2.35-20,7.23-1.81,4.37.44,9.14,6.7,11.15,8.81,2.83,22.77.18,27.56-5.23a7.82,7.82,0,0,0-1.25-10.91c-2.15-1.6-4-2.2-10.1-2.25Zm217.3,4.27c-11.65.1-19.27,3.95-19.27,10.09,0,3.46,1.9,5.81,6,7.45,3.28,1.31,15.36,1.37,22.09.1,9-1.68,14.15-7.12,11.76-12.38-1.42-3.11-4.85-4.25-15.37-5.07C800.67,383.36,798.93,383.3,797.26,383.31ZM577.68,385c7.74-.08,9.79,3,5.67,4.89-3,1.35-13.13,2.35-15.36,1.52l-3-1.1c-2.91-1,5.42-5.23,12.69-5.31Zm224.38,5.11a33.09,33.09,0,0,1,6.93.61l3.5.93L810,393c-3.08,1.68-23.44,2.71-24.35,1.24-.34-.56.08-1.6,1-2.32,1.35-1.12,9.16-1.87,15.47-1.81ZM258.9,402c-2.72.11-5.6.21-8.66.29-24.9.64-46.39,2.6-50.05,4.55-1.34.72-2.18,2.58-2.65,5.83-1.09,7.5-4.62,21.27-6.71,26.15a25.1,25.1,0,0,1-16,14.45c-5.1,1.36-5.81.58-5.81,14.56,0,23.48,2.35,43,8.6,72.13,4,18.53,6.63,26,13.29,37.35,9.37,16,20,26.07,38.09,36.08,10.53,5.83,27.64,10.56,38.14,10.56,6.68,0,23.07-6.63,32.69-13.23a21.12,21.12,0,0,1,4.53-2.62c2.36-2.45,8.21-8.54,8.65-9s8.63-8.27,15.88-15.56a28.56,28.56,0,0,1,1.72-2.45c8-10.43,12.38-22.5,18.53-50.67l1.32-6h0l3.37-19.13c.05-2.56.42-5.55,1.14-11.37,1.79-14.33,2.31-46.55.77-47.77-.67-.54-3.31-1.28-5.85-1.65l-4.63-.67a27.08,27.08,0,0,1-7.7-1.19,10.34,10.34,0,0,1-2-.88c-7.06-3.88-14.19-14.81-19.59-30.07-1.31-3.7-3.06-7-3.89-7.32-2.58-1-32.5-2.38-32.5-2.38Zm7.38,7.44h42.79l3.21,9.55c6.94,20.65,16.4,30.25,31.18,31.63l6.42.6.71,5.61c.9,7.14-.91,33.35-3.6,52.11-6.48,45.13-12.32,60.61-29.88,79.18C304,602,291.62,610.43,275.54,616.49h0c-7.8,2.94-6.89,2.94-22-.15-9.09-1.86-13.8-3.43-19.5-6.5-21.42-11.56-37.14-28.69-45.56-49.64-5.46-13.59-12.14-55.05-13.1-81.28l-.65-17.54,4.3-1.29c5.56-1.67,13.59-9.72,17.26-17.31,3.19-6.61,6.73-20.48,6.73-26.45V412.2l10.25-1.37c7.29-1,22.61-1.36,53-1.36Zm-14,17.35c-13,.1-24.22,1.37-27.8,3.63-1.41.89-2.6,3.65-3.86,9-2.61,11.08-8.56,22.38-14.66,27.88-2.76,2.47-6,4.64-7.22,4.81-3.41.49-4.85,6.45-4.85,20a155.18,155.18,0,0,0,1.64,21.3c2.36,13.85,9.35,38.39,13,45.53,6.42,12.67,21.52,27,36,34.09,7,3.44,8.64,3.87,13.14,3.44,12.54-1.19,25.41-7.67,38.43-19.34,19-17,33.89-55.64,35.57-92.15.72-15.57,0-18-5.36-18a25.89,25.89,0,0,1-8.78-2.34c-8.67-4.06-15.33-13-21-28.12l-2.26-6-11.36-1.7a206.14,206.14,0,0,0-30.6-1.94Zm-1.55,6.12c2.26,0,2.34.45,1.93,1.5-1.06,2.77-3.38,18.66-4.81,33-1.69,16.94-1.69,75.06,0,90.5.69,6.33,2.16,16.4,3.27,22.37h0c1.11,6,1.85,11,1.65,11.23-.61.61-13.43-8.12-20.92-14.24s-14.5-14.55-18.24-22c-7.91-15.88-15.21-56.13-13.15-72.57.68-5.44.85-5.7,5.13-7.78a30.53,30.53,0,0,0,8.06-6.31c4.64-5.33,10.75-17.85,13-26.63,2-7.93,1.53-7.67,17.29-8.73,3.28-.21,5.42-.34,6.78-.32Zm7.56,0h9.12c5,0,12.13.29,15.83.65l6.72.63,1.62,5.56c5.07,17.47,15.89,29.35,29.35,32.23l5.37,1.15-.6,12.14c-1.86,38-18.73,77.33-39.71,92.58a99.78,99.78,0,0,1-13.38,8.15h0a49,49,0,0,1-10.21,3.47l-4.11.65-1.1-7.36c-3.44-23.16-4.5-39.32-4.53-68.35,0-29.71.9-45.53,4-69.25Zm515.58,23.66a6.15,6.15,0,0,0-2.43.37c-3.76,1.42-5.35,3.8-5.39,8,0,4.71,7.38,15,13.72,19,5.4,3.43,9.45,3.75,12.22,1,4.95-4.94,3.37-12.78-4.06-20.21C782.81,459.69,777.67,456.76,773.84,456.63ZM593.53,461c-4.71,0-13.69,4.18-18.13,8.44-3.58,3.43-4.41,4.88-4.41,7.75a10.94,10.94,0,0,0,2.16,6.28c2,2.59,2.52,2.72,8.94,2.35,5.74-.32,7.37-.85,10.59-3.42,5-4,8.86-11.11,7.94-14.73S596.52,461,593.53,461Zm180.31,2.11c1.51-.16,4,1.65,8.19,5.68,4.38,4.27,6,6.52,6,8.51,0,4-2.92,3.46-8.22-1.56-5.53-5.22-8.19-9.25-7.42-11.24C772.68,463.62,773.16,463.15,773.84,463.08Zm-181.19,4.25c1.1-.1,1.34.35,1.34,1.65,0,2.61-2.47,6.41-5.42,8.35-3.54,2.31-9,3.05-10.37,1.39-.92-1.11-.4-2.12,2.56-5,4-3.87,6.25-5.16,10.48-6.18A10.92,10.92,0,0,1,592.65,467.33Zm87.67.84a6.61,6.61,0,0,0-2.8.9c-4.65,2.27-6.75,7.63-6.69,17.08.06,9.15,1.27,13.1,4.48,14.57h0c3.4,1.56,7.69-.7,10.1-5.3,1.48-2.83,2.15-6.23,2.36-12,.32-8.85-.77-12.06-4.85-14.36a5.54,5.54,0,0,0-2.6-.93ZM679,475c2.42,0,3.57,5,2.61,11.37-.69,4.64-2.65,8.21-3.85,7-.39-.4-.72-4.7-.72-9.56,0-8.1.16-8.83,2-8.83Zm79.37,33.12c-18.94,0-48,.05-93.87.16-93.06.22-98.19.33-100.84,2.06A11.41,11.41,0,0,0,566.92,531l3.57.95v19.29c0,10.6.28,39.3.62,63.77s.25,55.08-.22,68-.92,33.79-1,46.36l-.16,22.85-13.4-.43-13.4-.45,4.38,6.1,28.1,0c15.45,0,31-.34,34.5-.79l6.4-.82-.66,9.82c-.71,10.49-4,21.18-7.9,33.65-3.75,11.9,4.52,27.69,3.31,28l-.25.06A22.58,22.58,0,0,0,618,828l-1.5-3.59c-4.46-10.67-4.73-18.58-1-29.41A107.55,107.55,0,0,0,621,762.7v-8l6.48.66a82.43,82.43,0,0,1,13.08,2.7c9.37,2.9,28.83,11.56,29.33,13.05a95.42,95.42,0,0,0,5.32,8.78,125.26,125.26,0,0,1,13.25,26.86c2.38,7.29,5,10,14.93,15.52,4.74,2.64,8.62,5,8.62,5.25l12.49.44-4.24-2.55c-2.34-1.4-4.25-2.9-4.25-3.34s5.72-3.83,12.72-7.54c20.86-11,22.5-13,28.15-33.34,5.2-18.75,3.74-17.11,19.23-21.6,7.37-2.14,14.74-4.57,16.39-5.41a93.18,93.18,0,0,1,10.42-3.8c9.47-2.92,12.2-2,17.15,5.69,3.31,5.15,3.42,5.64,3.1,13.67-.27,6.87-4.88,28.51-6.32,29.65-.19.15-5.29,2.68-11.34,5.61-8.62,4.18-12.35,6.67-17.2,11.51-3.4,3.39-6.49,7.36-6.85,8.81v0l-.67,2.65,5,0h0l3.26-3.75c4.24-4.88,10.23-9.13,20-14.2l7.87-4.1.92,3.31a67.54,67.54,0,0,0,5.05,10.61c2.28,4,4.14,7.49,4.14,7.72h0l4.2-.56a2,2,0,0,1-.19-1c0-1.09-1.8-5.88-4-10.64-4.55-9.86-4.75-12-2.06-21.82,1.06-3.88,2.42-8.91,3-11.16l1.06-4.11,6.87-.64c11.4-1.06,17.73-5,22.27-13.9,1.72-3.38,3.69-15.59,3.84-23.77,0-.84,1.82-3.92,4-6.84,4.24-5.64,7-13.21,7-19.07,0-2-1.2-6-2.65-9.06-3.29-6.87-3.39-12.9-.35-22.82,3.51-11.44,1.94-17.2-7.1-26.1l-5.12-5,.86-4.77c3.08-17.08-1.13-24.3-15.44-26.52l-7.15-1.1-1.59-4.8a18.45,18.45,0,0,0-4.73-7.44c-3-2.52-3.56-2.61-12.68-2.25l-9.55.39-2-4c-2.72-5.41-6.07-7.57-12.81-8.27L787,591.7V566c0-14.16.29-27.14.63-28.86.54-2.73,1-3.13,3.87-3.13,6.88,0,15.08-4.3,18.73-9.82,2.55-3.86,2.21-7.65-1-11.24-2.43-2.73-3.66-3.2-10.24-3.93-5.71-.63-9.08-.88-40.65-.9Zm-179.87,5.25c9.22,0,26,.33,52.71,1.1C681.53,515.9,696.78,516,732,515c59.14-1.63,65.76-1.61,70.24.28s4.87,4.3,1.5,7.37c-4.4,4-7.16,4.75-20.75,5.51-16.37.93-105.31,2.15-106,1.46-.28-.27-22.1-.71-48.5-1-41.82-.42-49-.71-55.36-2.28-5.68-1.39-7.59-2.32-8.39-4.07-1.25-2.74,1-6.84,4.72-8.52.63-.29,3.46-.45,9-.46Zm-1.37,19.93a2.36,2.36,0,0,1,.58.18c1,.43,15.22,1,31.58,1.28l29.75.5,0,9.11c0,5,1.09,29.15,2.34,53.62,2.47,48,2.75,49.84,8.25,53.74,5.9,4.2,9.54,4.63,40.64,4.86,32.86.23,33,.25,36.45,6.66,2.22,4.06,2.68,25.91,1.54,73.22l-.77,32-7.17,1.66c-3.94.92-7.54,1.85-8,2.06s-4.43.1-8.83-.25c-13.54-1.07-24.08-4.12-44.33-12.82-22.28-9.57-31.51-11.28-47.17-8.75-5.22.84-15.44.41-22.68.9l-13.18.88-.32-9.25c-.18-5.71.09-17.13.59-25.39,1.1-18.24,1.25-145.58.19-168.38C576,535.37,575.9,533.13,577.08,533.27Zm203.82.61-.53,34.79c-.29,19.14-1,40.42-1.45,47.3s-1.38,40.17-1.94,74-1.14,61.88-1.28,62.34-8.58,3.48-18.74,6.7h0c-10.16,3.22-19.42,6.1-20.57,6.39l-2.1.53.1-50.73c.1-49.6-.6-50.54-2-54.71-.73-2.22-5.67-11-11.42-10.54l-29.75.22c-41.59.31-41,.6-42.38-21.9-.46-7.59-1.31-27.3-1.88-43.8s-1.32-34.32-1.65-39.6l-.6-9.61,61.88.1c34,.06,64.68-.25,68.09-.69Zm6.23,63.94,4.18.67c6,1,8.46,2.88,9.38,7.22.44,2.07.77,13.43.74,25.26-.07,23.66-1.41,31.74-6,36.07h0c-1.56,1.46-4.06,2.38-7.39,2.7l-5,.48v-6.88c0-7.38,2.75-54.05,3.63-61.2Zm33,12.51a12.08,12.08,0,0,1,4.73.59c1.71.91,4.85,7.69,3.94,8.49-.19.18-2.62,1.46-5.4,2.85a57.89,57.89,0,0,0-10.25,7.21l-5.2,4.69V611.25l7.48-.68C817.2,610.41,818.79,610.33,820.17,610.33Zm13.57,15a43.24,43.24,0,0,1,5.59.65c12,1.87,14.86,5.16,12.85,14.89-1.41,6.84-1.49,11.1-.24,13.08.72,1.14-.52,2-6,4.12a96.54,96.54,0,0,0-11.18,5.2,48,48,0,0,0-6.87,4.91c-2.52,2.34-2.63,2.35-5.5.6a15.42,15.42,0,0,0-6.73-1.78c-4.27,0-9.72-2.42-9.66-4.28,0-.67.62-5.12,1.35-9.9,1.08-7.08,1.9-9.39,4.47-12.65a45.53,45.53,0,0,1,15.27-12.74C830.13,625.88,831.48,625.28,833.74,625.3Zm23.12,36.85c1.76,0,2.65.46,4,1.93,4,4.32,4.63,8.82,2.24,16.69A53.26,53.26,0,0,0,861,693.4c0,5.2-.21,5.7-2.75,6.71-3,1.17-19,2-23.5,1.2-1.51-.26-2.75-1.12-2.75-1.91s-1.63-3.23-3.63-5.44c-3.1-3.44-3.54-4.49-3-7.26.35-1.78,1-5,1.38-7.14.63-3.28,1.63-4.52,6.24-7.65,6.44-4.37,16.15-8.62,21.77-9.52A18,18,0,0,1,856.86,662.15Zm-53.52,7.47c.63,0,1.42.46,3,1.41a16.22,16.22,0,0,0,7.22,1.93,12.39,12.39,0,0,1,6,1.41c1.75,1.29,1.81,1.82.69,6-2.1,7.82-1.63,12.07,1.77,15.93,5,5.73,4.41,7.11-6.19,13.64-6.82,4.2-8.29,7-8.44,16-.1,5.78-.63,8.39-2.25,11a15.52,15.52,0,0,0-2.12,4.65c0,1.81-4.81,4.72-12,7.28h0c-3.58,1.27-7.14,2.55-7.92,2.84-1.2.46-1.31-2.83-.75-22.29.37-12.56.67-29.51.67-37.67V677l4.25,0c4.82,0,11.36-2.7,14.09-5.77.91-1,1.38-1.54,2-1.56Zm59.33,36.59c1.19,0,1.57.86,2.44,3.75,1.55,5.18.1,11.61-3.92,17.39-1.48,2.13-3.48,5.06-4.43,6.5a12.15,12.15,0,0,1-4.5,3.82c-5,2.18-20.72,1-31.77-2.43l-6-1.85-.3-6.35c-.26-5.47,0-6.67,2-8.8a22.58,22.58,0,0,1,5.3-4,33.17,33.17,0,0,0,6-4.27c2.94-2.69,3.16-2.73,11.36-2a67.82,67.82,0,0,0,22.33-1.54A6.21,6.21,0,0,1,862.67,706.21ZM147.78,721.09c-1.25,0-2.14.6-3.27,1.85-2.48,2.74-1.69,6.62,4.86,24.08,4.52,12.07,14.61,41.57,14.61,42.74,0,.19-2.58-1.69-5.75-4.18-15.54-12.2-27.29-9.47-20.11,4.68a91.48,91.48,0,0,0,5,8.46l2.91,4.25h-4c-3.18,0-4.46.59-6.51,3-3,3.5-4.11,8.12-4.08,16.22l0,5.75H137l0-4.75c0-6,1.43-12.14,3.15-13.85,1.92-1.91,8.81,1.42,16.13,7.78,4,3.48,6.15,4.75,6.86,4.05,1.71-1.71,0-4.77-5.37-9.83-3.9-3.64-6.44-7.45-10.51-15.73-2.95-6-5.11-11.19-4.8-11.49,1.15-1.15,9.9,4.08,15.23,9.1a55.22,55.22,0,0,1,8.5,10.47c3.52,6.22,4.14,6.72,5.83,4.69,2.71-3.27-6.11-36.34-17.71-66.38-2.43-6.3-4.29-12.11-4.13-12.93.44-2.31,11.73,8.69,17.52,17.1,8.42,12.22,13,22.69,17.76,40.77,3.17,12,3.14,13.15-.44,18.09-3.37,4.65-5.5,10.31-4.67,12.45,1,2.53,3.54,1.59,5-1.81,2.14-5.14,10.81-14.9,17-19.17,3.1-2.14,5.89-3.65,6.19-3.35s-1.27,5.84-3.5,12.3-4.34,14.17-4.69,17.12L199.7,828H206v-3.75c0-2.06,2-9.59,4.5-16.72,5.22-15.06,5.63-19.06,2.09-20.67-2-.89-3.39-.64-7.79,1.38a43.82,43.82,0,0,0-9,5.6l-3.56,3.13-.65-4.73A134.54,134.54,0,0,0,183.07,762c-7.08-16.44-20.72-34.19-29.85-38.85-2.57-1.32-4.19-2-5.44-2ZM813,738.56c.87,0,2.23.55,5.09,1.85,6.81,3.12,17.92,4.86,28,4.4l7.86-.36v5.15c0,6.37-4.2,15-8.54,17.53-1.63,1-5.93,2-9.55,2.4l-6.58.68-1.1-6.68c-2-11.95-7.05-19.16-14.91-21.23-2.81-.74-3-1-1.89-2.59C812,739,812.33,738.58,813,738.56ZM917.91,749c-5.54,0-14.82,5.91-25.12,16l-9.7,9.5.57-4.59c.71-5.72-.82-8.91-4.27-8.91-4.55,0-11.59,8.59-18.27,22.26-7.57,15.48-10.13,23.86-10.85,35.49l-.58,9.25h0l6,0,.6-8.43C857,809.19,861.1,796.46,868,783c5.12-10,10-16.1,10-12.62,0,4.1-4.37,18.38-7.57,24.73-4.44,8.81-6.83,17.67-5.29,19.54,1.26,1.51,3.86.07,3.86-2.14,0-2.46,9.92-21.25,15-28.42,5.9-8.31,15.82-18.53,22.44-23.08a34.48,34.48,0,0,1,4.91-3c.26,0-1.22,4.16-3.29,9.25S900.81,785.7,896.57,797s-8.85,22.18-10.26,24.23-2.29,4.4-2,5.24a6.71,6.71,0,0,0,3.38,1.38l5.27-5.35c7.1-7.21,17-15,16.94-13.32a81.36,81.36,0,0,1-3.36,9.82l-3.3,8.5,5.79.4h0l2.07-5.19c6-14.91,7.35-19.68,6.25-21.44-2.31-3.69-6.3-2-18.94,7.85-2.23,1.73,18.11-47.63,22.54-54.72,1.94-3.1.64-5.38-3.07-5.38ZM498.1,750.47l-23.59.63c-20.68.56-28.49,1.35-31.42,2.86-.88.45-5.44,2.6-10.12,4.76-5.9,2.72-14.34,8.33-27.35,18.17-21.66,16.39-28.83,21.17-40.56,27.05-10.93,5.48-13.74,7.62-16.77,12.78h0c-1.33,2.27-2.48,4.1-2.62,4.21l2.4,6.57.71-.36c-.6-.13-.8-.26-.6-.43a30.08,30.08,0,0,0,4.36-5.74c3.43-5.58,4.08-6.11,13.9-11.15,13.35-6.86,27.8-16.56,46.76-31.39,3.14-2.46,5.27-4.09,5.78-4.09s5.5,5.85,10.63,11.48c23.75,26.12,28,30.07,38.56,36.32,3.65,2.15,6.14,4.31,6.46,5.15.13.33-.12.54-1.41.67h10.9l-2.2-3.09a31.63,31.63,0,0,0-6.1-5.91l-3.89-2.82,15.6-9.7c16.8-10.44,17.66-11.33,22-22.66,2.4-6.26,4.39-9.26,5.13-8a28.78,28.78,0,0,0-1.87-7.43l-2.43,1.92c-2.78,2.19-5.37,6.94-7.78,14.32-2.1,6.42-4.09,8.21-20.35,18.32-7.28,4.53-13.49,8.65-13.81,9.16h0a2.73,2.73,0,0,1-2.13.93c-1.68,0-18.07-16.18-33.14-32.7l-9.3-10.19,5.31-3.05c2.92-1.68,8.68-4.48,12.81-6.23l7.5-3.18,25.44-.23,28.55-.22ZM755.66,766.3c.19.2-.51,2.34-1.56,4.76s-3.19,8.69-4.74,13.91c-3.5,11.77-6.77,15.36-20.39,22.4a154,154,0,0,0-14.23,8.25,56.28,56.28,0,0,1-5.06,3.35c-1.1,0-12.23-7.36-13.26-8.77a23.94,23.94,0,0,1-2.44-5.67c-1.8-6-8.2-19.35-12.45-26-3.59-5.58-3.66-5.86-1.41-5.2,1.31.38,6.65,1.59,11.87,2.69,15.79,3.33,23.54,2.36,51.91-6.54C750.17,767.56,755.46,766.11,755.66,766.3Z" class="cls-1" id="path1440"></path><path d="M470,473.1s-2.65,16.85-13.64,27.84-15.53,6.25-15.53,6.25l-1.95-21.34S462.42,487.87,470,473.1Z" class="cls-6" id="path1481"></path><path d="M347.64,342.31s5.59,8.34,1.33,17-14.28,9-14.28,9,1.68-23.19,12.95-25.94Z" class="cls-6" id="path1483"></path><path d="M956.63,831.84c0,11.83-83.75,22.73-218.66,28.45s-299.69,5.37-430.23-.92S101.53,841.83,110.14,830l422.92,1.81Z" class="cls-4" id="path2704"></path><path d="M336.49,215.66c-10.81,0-17.87,2.71-23.73,9.24-4,4.44-4.73,4.83-9.92,5.26-11.65,1-23.88,9.93-27.78,20.37-3.29,8.79-2.29,16.33,2.76,20.82,2,1.78,2,2,.48,5-2.67,5.18-2.86,15.21-.4,21.72,2.37,6.27,7.84,13.23,12.17,15.46,2.22,1.15,3.25,2.79,4.54,7.22,2.51,8.65,6.91,19,10,23.37,6.06,8.76,17.6,14.3,25.41,12.22,2.2-.59,4-.94,4-.77s-10.46,7.23-23.25,15.71c-17.48,11.59-24.8,17.07-29.5,22.1-3.44,3.68-6.25,7.05-6.25,7.5s-6.75.81-16.09,1.17h20.61l5-4.69c4.67-4.39,48.39-34.63,49.17-34a41.4,41.4,0,0,1-1.7,5.72,95.54,95.54,0,0,0-3,14.66c-1.05,8.2-.94,10.3,1.08,21.42a323.82,323.82,0,0,0,9.5,36.58c.38,1.09-.47,1.41-2,1a27.49,27.49,0,0,0,7.7,1.19L340,422.67c-5.6-22.64-7.68-38.34-4.73-35.9,5,4.16,14.63,3.15,22.9-2.41l5.1-3.43-.68,9.77c-1.25,17.93,2.5,45.24,8.88,64.72,7.42,22.67,22.58,46.23,44,68.35l8,8.3-2.47,4.7c-3.84,7.3-13.7,19.91-22.25,28.47-5.68,5.68-7.36,7.93-6.27,8.35,4.61,1.77,28.87-23.58,32.7-34.18.69-1.91,1.57-3.35,2-3.21s6.74,5.83,14.14,12.64c12.09,11.11,13.34,12.58,12.43,14.5-1.21,2.53-15.55,14.69-23,19.48-8.94,5.77-22.94,12-31.77,14.11-10.26,2.46-28.54,2.68-36.95.45-6.76-1.8-16-6.19-16-7.6,0-.58,1.3-2.53,2.89-4.35,8.88-10.11,11-35.78,5.88-70.46a55.69,55.69,0,0,1-1-9.64l-3.37,19.13h0l.65,7c1,11.07,1,27.44-.12,34.2-1.32,8.17-4,14.23-8.52,19.22h0c-3.67,4.06-7,5-11.46,3.37-3.12-1.16-3.77-2-2.13-4.67-7.24,7.29-15.54,15.23-15.87,15.57s-6.3,6.53-8.65,9c.05,0,.1,0,.11,0,.19.19-2.37,4.85-5.68,10.35s-10.44,19-15.84,30c-10.83,22-13.65,31-12.51,39.89.88,6.91,7,26.7,16.16,52.64,4.19,11.81,7.84,22.92,8.12,24.69s-.93,6.18-1.7,10.47c-1.06,5.85,0,9.06,2,11.14,3.67,3.88,4.12,4.11,3.33,7.45-.65,2.73-1.54,3.8-3.82,4.54-1.64.53-8.74,4.09-15.77,7.9s-20.54,10-30,13.85L231.47,828H121.85c-5.33,0-10.41.27-11.28.6-1.88.72-2.13,5-.34,5.73v0c2.62,1,856.85.68,858.82-.37a3.49,3.49,0,0,0,1.93-2.38c0-3.38-2.52-3.65-32.36-3.68l-29.56,0h0l-5.79-.41h0l-7.89.3-7.89.29.23-.24a6.81,6.81,0,0,1-3.38-1.37h0c.51,1.32-1.34,1.52-14,1.52H855.69l-6,0h-9.35c-6.71,0-8.63-.1-9.16-1l-4.19.57h0c-.11.23-9.33.41-20.6.41h-20.6l-5,0H724.48L712,827.5c0,.25-21.14.46-47,.46H618a22.61,22.61,0,0,1-7.22-.62,33.2,33.2,0,0,1-7.23.61c-7.12,0-9.77-.35-10.15-1.33-.64-1.67-11.37-10.52-21.89-18.06-5.81-4.16-9.23-7.54-12.56-12.45l-4.58-6.73,1.8-3a13.29,13.29,0,0,0,1.8-5.71c0-3.83-3-11.27-7.15-17.78l-3.53-5.52-4.38-6.11s-17.62-28.75-28.83-56.45c-.8-2-5.41-11.47-9.61-21.37-13.38-31.54-22.53-52.66-28.17-65-3-6.6-5.74-12.63-6.06-13.4-.86-2,3.7-.79,12.25,3.36,13.45,6.54,17.25,12.22,20.1,30,1.73,10.76,5.38,18.93,9.42,21s11.31,1.86,15.85-.45c8.94-4.57,19.58-20.34,22.19-32.92,1.58-7.62.67-33-1.42-39.64-3.52-11.11-7.29-14.66-35.76-33.65-10-6.7-21.37-15.15-25.18-18.79l-6.94-6.62,7-5.18c7.4-5.51,23.94-21.32,36.93-36.48,5.84-6.82,12.7-12.05,15.46-12.93,8-2.57,14.9-8.54,20.6-14.07,4.93-3.59,5.45-6.71,5.06-12.43-.52-10.78-3.28-18.49-8.56-23.83C546.73,401.86,533,402.74,533,414c0,3.23-.55,4.58-2.48,6.1-2.9,2.28-4.16,6.41-5.23,17.2l-.79,7.86-15,6.69c-8.25,3.68-18.94,8.84-23.75,11.47s-8.75,4.55-8.75,4.26a19.25,19.25,0,0,1,1-3.07c1.15-3,.4-5.57-1.64-5.57-.85,0-3.06-3.44-5.29-8.25-3.78-8.16-6.75-19.22-9.07-33.75-1.8-11.3-5.55-22.17-9.34-27.1-4.32-5.62-10.73-9.42-31.31-18.58-9.12-4.07-23.52-10.75-32-14.86s-16-7.46-16.7-7.46-1.93-1.24-2.69-2.75-1.52-3-1.7-3.36,2.06-.6,5-.57c12.28.11,20.73-9.14,19.56-21.39-.32-3.3-.07-5,.78-5.31,5.58-2.15,11.76-22.52,9.31-30.72-1.45-4.83-8.09-12.67-11.44-13.51-2.84-.72-2.89-1-.92-5.74,4.41-10.54-1.52-22.64-11.9-24.33-2-.32-3.6-1.08-3.6-1.69,0-2.7-7.6-11.76-13.07-15.6-8.49-6-15.69-8.32-25.43-8.36Zm.23,5.77c9,.3,19.77,4.71,27.63,11.62,6.07,5.35,7.23,7.47,5.18,9.52-2.24,2.24-1.27,3.05,4.59,3.82,7,.93,11.89,5.57,11.83,11.23-.06,4.59-2.11,10.76-4.46,13.35s-1.13,4,3,4c7,0,13.52,9.19,13.52,19a20.66,20.66,0,0,1-9.14,17.69c-2.67,1.93-4.86,3.9-4.86,4.4s.95,1.85,2.1,3c2.47,2.46,2.1,6.22-1.12,11.43-4.06,6.57-14.55,8.38-21,3.62-2.4-1.78-3-1.87-4-.65-1.66,2,1.22,10.32,5.54,16l3.34,4.38L366,361.88c-3.6,10.2-6.33,14.61-10.9,17.61h0c-7.17,4.7-17,4.69-18.77,0-.68-1.76,1.37-13.43,2.63-15a50.05,50.05,0,0,0,2.93-8.21c1.18-4,3.25-8.53,4.61-10.14,2.65-3.16,3.25-6.15,1.22-6.15-.69,0-3.95,1.81-7.25,4-9,6-13.69,7.55-18.44,6.13-5.39-1.62-13.13-8.91-16.84-15.87-3-5.66-6.37-17.88-9.61-35-.86-4.52-1.83-9.29-2.16-10.61-.51-2-.17-2.48,2.36-3a15.53,15.53,0,0,0,5.8-3l2.84-2.44,2.86,5.94c5.88,12.25,17.88,16.27,28,9.38,3.07-2.07,3.95-2.25,6.51-1.29s3.1,1.86,4.15,7.16c3.44,17.51,10.56,19,18,3.69l3.5-7.19,3.78.46c4.65.55,6.71,2.15,6.71,5.17,0,5.61-4.34,8.79-11.31,8.27l-4.18-.31v6.34c0,6.05.18,6.49,3.8,9.81,2.73,2.51,4.54,3.39,6.48,3.16,2.77-.32,4.57-3.81,2-3.81-1.61,0-6.19-4.68-7.09-7.25-.48-1.36-.06-1.75,1.89-1.75,6.31,0,13-5.25,14.37-11.23C385.46,300,380.2,293,373.59,293c-1.93,0-2.6-.51-2.6-2,0-2.86-3.41-2.56-5.84.53a85.63,85.63,0,0,0-5.82,10c-2.11,4.1-4.29,7.32-4.84,7.14-1.68-.54-5.78-13.07-4.43-13.52,2-.66,4.93-4.05,4.93-5.65,0-1.78-2.3-2-4.86-.35a6.62,6.62,0,0,1-4.41.5l-2.58-.65,3.43-5.69c5.57-9.25,4.08-15-1.71-6.62-14.14,20.56-26.66,21.59-34.94,2.87-2.81-6.36-5.67-6.93-10.94-2.17-3.53,3.2-5.64,4.15-8.25,3.73-.43-.07-1.29,1-1.92,2.4-1.1,2.4-.19,12.44,1.86,20.48l.64,2.5-2.26-2c-4.49-4-6.5-9.42-6.53-17.67,0-6.4.35-8.16,2.23-10.7,2.86-3.87,2.82-4.55-.3-6-3.5-1.59-5.82-7.46-5-12.61,1.39-8.7,7.5-15.7,18.05-20.7,7.63-3.62,10.39-3.75,9.77-.46-.48,2.48,1.18,6.61,2.64,6.61.47,0,1.39-2.14,2-4.75,2.23-8.87,8.2-14,18.94-16.32a23.86,23.86,0,0,1,5.83-.47Zm-21.88,91.74c-1.13-.06-3.27.6-7.13,2.05-5.57,2.08-6.3,3.16-3.82,5.65s3.36,2.54,6.42,1,5.63-5,5.66-7.25C316,313.7,315.71,313.21,314.84,313.17Zm59.21,43.5c1.27,0,9,3.34,18,7.67,9.59,4.63,20.31,9.62,23.82,11.09,13.61,5.7,26.7,12.7,30.24,16.17,5.38,5.25,8.45,13,10.39,26.37,3.13,21.48,7.59,35.22,13.86,42.68l2.5,3-2.43,4.06c-1.33,2.24-5.17,6.45-9.34,9.64-6.85,5.25-8.8,4.38-14,4.75l-5.78.42-1.09-7.89c-1.09-9.59-1.09-9.61,2.35-19.81s3.4-12.78,0-11.46c-.88.34-2.23,2.09-3,3.88-1.72,4.05-2,3.23-3.4-9.82-1.27-11.94-1.74-13.41-4.24-13.41-2.32,0-3.26.07-1.31,20,4.3,43.94,10.69,87.78,13.57,93.16,2.12,4,4.14,1.94,3.57-4.91l-.57-6.75h8.67c7.41,0,9.55-.41,14.65-2.8l6-2.8,2,2.8c4.25,6,12.76,12.83,31.05,25.07,21.19,14.2,29.42,21.66,32,29,2.61,7.53,4.13,25.88,2.86,34.64-1.73,12-8.18,23.72-16.9,30.65-2.58,2.05-4.79,2.94-7.31,2.91-6.58-.06-8.83-3.57-11.55-18-2-10.83-3.11-14.32-6.31-20.48-7.45-14.37-16.05-23.82-54-59.33-14.71-13.76-29.47-28.09-32.79-31.85-29.73-33.56-41.5-58.77-46.51-99.62-1.76-14.31-.71-39.94,2.05-50.2,1.19-4.4,2.48-8.35,2.9-8.77,0,0,.08,0,.16,0ZM542.5,411c2,0,5.12,1.24,8.13,3.25,3.94,2.64,5.29,4.34,7.15,9,1.27,3.19,3.18,8.71,3.09,12.32,0,0,.38,4.85-.17,6.25s-4.6,5.23-4.6,5.23c-3.06,2.72-10.07,7.22-15.58,10C530.7,462,530.06,462.54,509,483.9c-21.92,22.23-31.92,30.36-42,34.12-6.46,2.41-12.9,3-17.51,1.6-3.72-1.13-4.06-1.55-5.13-6.35a136.11,136.11,0,0,1-1.85-14.73l-.72-9.57h5.13c5.38,0,10.78-2.18,16.82-6.78L467,479.7l-.66,7.14c-.48,5.23-.35,7.13.53,7.13,1.63,0,3.94-5.85,4.85-12.23l.75-5.27,23.56-12c13-6.6,25.62-13.22,28.11-14.71l4.53-2.7,1.85-10.14c2.49-13.61,2.88-14.06,9-10.46,4.19,2.46,4.58,2.94,2.88,3.6a14.65,14.65,0,0,1-4.15.84c-3.16.1-3.81,1.89-1.58,4.4A21.78,21.78,0,0,1,540,442c1.83,6.12,2,6.28,3.7,4.83,1.15-.95,1.4-2.53,1-6.36-.5-4.9-.41-5.14,2.39-6.19,2.09-.79,2.9-1.77,2.9-3.49,0-2.68-4.75-7.68-9.65-10.15-3.06-1.54-3.12-1.69-2.12-5.61.92-3.68,1.3-4,4.28-4ZM459.33,566.14l6.8,6.09c3.74,3.35,10,9.61,13.9,13.91s7,7.8,6.78,7.76-2.34-1-4.82-2.09a61.33,61.33,0,0,0-10.5-3.27l-6-1.25-3.08-10.57Zm-4.06,5s.06,0,.07,0c.14.2,1.57,4.61,3.2,9.79s3.57,10.06,4.35,10.83,4,7.83,7.18,15.69,9,21.65,12.92,30.67,9.61,22.69,12.63,30.39c7.51,19.13,38.1,80.1,44.9,89.5q16.44,22.69,9.1,27.51h0c-4.08,2.67-13.76,2.67-24.39,0-2.34-.58-3.43-2.5-4.65-8.14-.64-2.94-.53-3.1,1.87-2.64,4.23.82,3-1.87-3.34-7.48a116,116,0,0,1-11.75-12.66c-3.22-4.12-11.49-14.24-18.36-22.48-19.25-23.07-40.47-53.6-69.06-99.33C410,616.92,407,613.44,407,617.94c0,1.71-.44,1.88-3.25,1.25-5.28-1.18-27.88-.76-32.5.6-3.13.93-4.25,1.77-4.25,3.22,0,1.66.69,2,4.64,2h4.64l-4.89,4.21c-13.07,11.27-45.87,45.28-49.81,51.67-.23.37.21,8.32,1,17.65s1.71,30.8,2.08,47.7c.61,28.35.52,31-1.15,34.75-1.41,3.14-2.59,4.23-5.41,5-4.81,1.34-12.71,1.28-15.41-.12-5.12-2.64-5.51-3.51-4.16-9.15.69-2.87,1.54-5.91,1.89-6.75s-4.74-17.72-11.31-37.5c-13.45-40.51-14.49-44.74-13-53.16.56-3.2,1.18-6.71,1.35-7.81.32-2,12.17-24.83,21.78-42,7-12.56,14.84-25.05,20.2-32.34,4.52-6.13,4.58-6.18,7-4.58,1.74,1.14,4.15,1.51,8.27,1.27,5.19-.3,6.35,0,10.77,2.95,9,6,16.83,7.69,34.48,7.69,13.16,0,16.71-.35,23.5-2.31,14.75-4.23,33.06-14.63,45.3-25.73,3.23-2.94,6-5.23,6.47-5.33ZM385.78,624l7.85.06c15.84.11,14.27-1,26.64,19.45,12.86,21.31,26.1,41.48,39.54,60.31,5.38,7.52,12.31,17.28,15.4,21.68s8.8,11.82,12.7,16.5l18.68,20.78,6.23,5.57s2.17,8.37,2.17,9.31a21.27,21.27,0,0,0,2.25,7.38c2.28,4.5,3.9,5.43,12.83,7.35,2.94.64,2.85.09,3,19.27.06,7.23-.36,13-1,14.25-1.08,2-1.81,2.09-24.51,2.09h-34.3c-4,.39-17.8,0-61.46,0-44,0-59.79-.18-63-.83l-.71.36-2.4-6.57,0,0c-.09,0-2.27-4.16-4.87-9.25s-6.19-10.82-8-12.74a27.7,27.7,0,0,1-4.82-7.5c-1.46-3.81,1.65-3.77,2.5-9l.82-5-.63-29.5c-.55-26.21-2.74-59.49-4.23-64.21-.64-2.06,23.65-27.27,45.22-46.91ZM321,790.57c1.32.09,1.83,1.28,2.83,4.3,1.47,4.37.44,5.63-6.16,7.59-6.31,1.88-6.28,1.88-11.56-.52-3.71-1.68-4.28-2.32-3.77-4.23a18,18,0,0,0,.62-3.5q0-1.25,5.26-1.29a34,34,0,0,0,9.24-1.46,10.55,10.55,0,0,1,3.54-.89Zm225.67,1.07a9.87,9.87,0,0,1,1.21.1c2.59.38,3.3,1.16,5.89,6.48.2.41-1.71.75-4.25.75a25.66,25.66,0,0,0-8.2,1.5,37.45,37.45,0,0,1-4,1.5c-.21,0-.38-2-.38-4.5,0-4.24.16-4.49,2.75-4.51a9.56,9.56,0,0,0,4-.83,6.09,6.09,0,0,1,2.93-.49ZM328.92,802.71a1.27,1.27,0,0,1,.9.55c1.64,2,11.17,21.92,11.17,23.37,0,1.1-8.25,1.33-46.25,1.27-28.23,0-45.47-.42-44.25-1s6.56-2.87,12.13-5.28c10-4.31,10.16-4.35,12.5-2.55a8.79,8.79,0,0,0,4.12,1.84c2.46,0,2.18-2.67-.41-4.06l-2.17-1.16,2.42-1.85c3.27-2.51,4.35-2.39,9.41,1.1,2.4,1.65,4.84,3,5.43,3,2.11,0,1-3.25-2.06-6.13-1.73-1.61-2.95-3.12-2.72-3.35a42.45,42.45,0,0,1,4.74-2.36l4.31-1.93,4.15,2.38c7.19,4.11,18.69,2.95,24.32-2.45,1-1,1.7-1.44,2.26-1.42Zm228.57,1.11L565,810c4.13,3.39,7.93,6.57,8.45,7.07,1.25,1.19,1,1.13-5.69-1.6-8.37-3.39-18.48-5.72-21.72-5a10.12,10.12,0,0,0-4.59,2.56c-2.6,2.87-3.45,2.4-3.45-1.9,0-3.59.25-3.91,3.87-5a64.14,64.14,0,0,1,9.75-1.73ZM548.74,816c3.31,0,21.89,6.25,28,9.41h0l4.8,2.5-21.75,0c-24.79.06-24.63.12-17.62-7.47,2.77-3,5-4.48,6.62-4.48Z" class="cls-7" id="path1433"></path><path d="M337.81,319.24a7.55,7.55,0,0,1-7.54,7.55h0a7.55,7.55,0,1,1,7.54-7.55Z" class="cls-8" id="path7004-5-5-1-7-6-7-5"></path></svg>