<svg t="1675752613566" class="icon" viewBox="0 0 1037 1024" version="1.1"
    xmlns="http://www.w3.org/2000/svg" p-id="1071" width="200" height="200">
    <path
        d="M1005.541403 689.04561h-71.467221V450.66639h71.467221c16.969143 0 30.587013-13.804052 30.587013-30.587013 0-16.969143-13.790753-30.587013-30.587013-30.587013h-71.467221V106.894961C934.060883 48.699844 886.67761 1.32987 828.509091 1.32987s-105.565091 47.383273-105.565091 105.565091v282.597403h-102.067532V311.18961c0-58.181818-47.369974-105.551792-105.551793-105.551792s-105.565091 47.369974-105.565091 105.551792v78.302754h-102.227116V106.894961C307.532468 48.699844 260.149195 1.32987 201.967377 1.32987 143.812156 1.32987 96.415584 48.713143 96.415584 106.894961v282.597403H31.757299a30.61361 30.61361 0 0 0-30.587013 30.587013c0 16.942545 13.790753 30.587013 30.587013 30.587013H96.415584v238.37922H31.757299a30.61361 30.61361 0 0 0-30.587013 30.587013 30.72 30.72 0 0 0 30.587013 30.587013H96.415584v272.290909h211.116884V750.379221H409.6V1022.67013h211.116883V750.379221h102.067533V1022.67013h211.116883V750.379221H1005.381818c16.955844 0 30.587013-13.790753 30.587013-30.587013s-13.631169-30.759896-30.427428-30.759896z m-745.551793 285.922078h-115.698701V341.60374A81.680623 81.680623 0 0 0 202.14026 365.714286a80.989091 80.989091 0 0 0 57.84935-24.110546v633.363948z m-58.022233-708.155844a80.989091 80.989091 0 0 1-57.849351-24.110545 81.281662 81.281662 0 0 1-23.764779-57.689767 81.680623 81.680623 0 0 1 81.61413-81.787013c22.607792 0 43.061195 9.149506 57.84935 24.110546a81.281662 81.281662 0 0 1 23.778078 57.689766 81.986494 81.986494 0 0 1-23.764779 57.676468 80.696519 80.696519 0 0 1-57.849351 24.110545z m105.565091 422.233766V450.66639H409.6v238.37922h-102.067532z m265.641558 285.922078h-115.698701V311.18961c0-31.916883 25.932468-57.849351 57.84935-57.84935 31.916883 0 57.849351 25.932468 57.849351 57.84935v663.778078z m173.720935-793.932467v-0.837818c0-0.997403 0.159584-2.167688 0.159584-3.165091 0-0.664935 0.172883-1.32987 0.332468-1.994806 0.159584-0.664935 0.159584-1.32987 0.332468-1.994805l0.50535-2.486857c0.159584-0.492052 0.159584-0.997403 0.332468-1.489454 0.159584-0.997403 0.492052-1.994805 0.664935-2.992208 0-0.332468 0.159584-0.664935 0.159584-0.997403 0.332468-1.170286 0.664935-2.167688 0.997403-3.165091 0-0.172883 0.172883-0.505351 0.172883-0.664935 0.319169-1.170286 0.824519-2.327273 1.156987-3.484259 0-0.172883 0-0.172883 0.172883-0.332468 0.492052-1.170286 0.824519-2.327273 1.32987-3.497558v-0.159585a81.92 81.92 0 0 1 17.447896-25.932467 83.076987 83.076987 0 0 1 18.777766-14.13652c2.327273-1.170286 4.654545-2.327273 6.995117-3.324675h0.159585c1.156987-0.505351 2.167688-0.837818 3.324675-1.32987 0.172883 0 0.332468-0.159584 0.332468-0.159585 1.170286-0.345766 2.327273-0.837818 3.497558-1.170285 0.159584 0 0.319169-0.159584 0.319169-0.159585 0.997403-0.332468 2.167688-0.664935 3.324675-0.997402 0.172883 0 0.505351-0.172883 0.664935-0.172884 0.997403-0.332468 1.994805-0.492052 2.992208-0.664935 0.345766 0 0.664935-0.172883 0.837818-0.172883l2.992208-0.492052c0.332468 0 0.664935-0.172883 0.997403-0.172883 0.997403-0.159584 1.994805-0.319169 2.992207-0.319169 0.332468 0 0.664935-0.172883 0.997403-0.172883 0.997403-0.159584 1.835221-0.159584 2.819325-0.159584 0.505351 0 0.997403 0 1.32987-0.172883 1.32987 0 2.832623-0.172883 4.162493-0.172883s2.819325 0 4.162494 0.172883c0.492052 0 0.997403 0 1.32987 0.172883 0.997403 0 1.821922 0.159584 2.819325 0.159584 0.332468 0 0.664935 0.172883 0.997402 0.172883 0.997403 0.159584 1.994805 0.159584 2.992208 0.319169 0.332468 0 0.664935 0.172883 0.997403 0.172883l2.992207 0.492052c0.332468 0 0.664935 0.172883 0.837819 0.172883 0.997403 0.172883 1.994805 0.492052 2.978909 0.664935 0.172883 0 0.505351 0.159584 0.664935 0.159585 1.170286 0.332468 2.167688 0.664935 3.324675 0.997402 0.172883 0 0.332468 0.172883 0.332468 0.172884a28.645403 28.645403 0 0 1 3.830026 1.32987c1.156987 0.505351 2.15439 0.837818 3.324675 1.32987h0.159584c2.327273 0.997403 4.654545 2.15439 6.981819 3.324675A78.462338 78.462338 0 0 1 885.693506 127.840416c7.314286 7.314286 13.298701 16.118026 17.461195 25.932467 0 0.159584 0.159584 0.159584 0.159585 0.319169 0.505351 1.170286 0.837818 2.167688 1.32987 3.324675 0 0.172883 0 0.172883 0.159584 0.345767 0.332468 1.156987 0.837818 2.327273 1.170286 3.484259 0 0.159584 0.172883 0.492052 0.172883 0.664935 0.319169 0.997403 0.664935 2.15439 0.997403 3.151793 0 0.332468 0.159584 0.664935 0.159584 0.997402 0.172883 0.997403 0.505351 1.994805 0.664935 3.005507 0.159584 0.492052 0.159584 0.997403 0.332468 1.489454l0.50535 2.500156c0.159584 0.664935 0.159584 1.32987 0.332468 1.994805 0.159584 0.664935 0.159584 1.32987 0.332467 1.994805 0.159584 0.984104 0.159584 2.15439 0.159585 3.151793v0.837818c0 1.32987 0.159584 2.819325 0.159584 4.149195s0 2.819325-0.159584 4.162493v0.82452c0 0.997403-0.172883 2.15439-0.172883 3.151792 0 0.664935-0.159584 1.32987-0.332468 1.994805-0.159584 0.664935-0.159584 1.32987-0.319169 1.994805l-0.50535 2.500156c-0.172883 0.492052-0.172883 0.997403-0.332468 1.489455-0.172883 0.997403-0.505351 1.994805-0.664935 3.005506 0 0.319169-0.159584 0.664935-0.159584 0.997403-0.332468 1.156987-0.664935 2.15439-0.997403 3.151792 0 0.159584-0.172883 0.492052-0.172883 0.664935-0.332468 1.170286-0.837818 2.327273-1.170286 3.497558 0 0.159584 0 0.159584-0.159584 0.319169-0.505351 1.170286-0.837818 2.327273-1.32987 3.497559 0 0.172883 0 0.172883-0.172883 0.332467a81.92 81.92 0 0 1-17.447897 25.932468 83.076987 83.076987 0 0 1-18.777766 14.136519c-2.327273 1.156987-4.654545 2.327273-6.995117 3.324676h-0.159584c-1.170286 0.492052-2.167688 0.824519-3.324675 1.32987-0.172883 0-0.332468 0.159584-0.332468 0.159584-1.170286 0.332468-2.327273 0.837818-3.497558 1.156987-0.159584 0-0.319169 0.172883-0.319169 0.172883-0.997403 0.332468-2.167688 0.664935-3.324675 0.997403-0.172883 0-0.505351 0.159584-0.664936 0.159584-0.997403 0.345766-1.994805 0.505351-2.992207 0.664935-0.345766 0-0.664935 0.172883-0.837819 0.172883l-2.992207 0.492052c-0.332468 0-0.664935 0.172883-0.997403 0.172883-0.997403 0.159584-1.994805 0.332468-2.992208 0.332468-0.332468 0-0.664935 0.159584-0.997402 0.159584-0.997403 0.172883-1.821922 0.172883-2.819325 0.172884-0.505351 0-1.010701 0-1.32987 0.172883-1.32987 0-2.832623 0.159584-4.162494 0.159584s-2.819325 0-4.162493-0.159584c-0.492052 0-0.997403 0-1.32987-0.172883-0.997403 0-1.821922-0.159584-2.819325-0.159585-0.332468 0-0.664935-0.172883-0.997403-0.172883-0.997403-0.159584-1.994805-0.159584-2.992207-0.332468-0.332468 0-0.664935-0.172883-0.997403-0.172883l-2.992208-0.492052c-0.332468 0-0.664935-0.159584-0.837818-0.159584-0.997403-0.172883-1.994805-0.505351-2.978909-0.664935-0.172883 0-0.505351-0.172883-0.664935-0.172883-1.170286-0.332468-2.167688-0.664935-3.324675-0.997403-0.172883 0-0.345766-0.159584-0.345767-0.159584a28.645403 28.645403 0 0 1-3.816727-1.32987c-1.156987-0.505351-2.167688-0.837818-3.324675-1.32987h-0.159585c-2.327273-0.997403-4.654545-2.167688-6.995117-3.324676a78.462338 78.462338 0 0 1-18.777766-14.136519 81.92 81.92 0 0 1-17.461195-25.932468c-0.492052-1.170286-0.997403-2.327273-1.489454-3.657143 0-0.159584 0-0.159584-0.159585-0.332467-0.345766-1.170286-0.837818-2.327273-1.170285-3.48426 0-0.172883-0.159584-0.505351-0.159585-0.664935-0.332468-0.997403-0.664935-2.167688-0.997402-3.165091 0-0.332468-0.172883-0.664935-0.172883-0.997403-0.172883-0.997403-0.505351-1.994805-0.664935-2.992207-0.159584-0.492052-0.159584-0.997403-0.332468-1.502754l-0.505351-2.486857c-0.159584-0.664935-0.159584-1.32987-0.332467-1.994805-0.159584-0.664935-0.159584-1.32987-0.319169-1.994805-0.172883-0.997403-0.172883-2.167688-0.172883-3.165091v-0.824519c0-1.32987-0.159584-2.832623-0.159584-4.162494s0.159584-2.978909 0.332467-4.308779z m-126.178078 508.010389V450.66639h102.067533v238.37922h-102.067533z m149.942857 285.922078V341.60374c5.479065 5.492364 11.795948 10.306494 18.777766 14.13652 2.327273 1.156987 4.654545 2.327273 6.995117 3.324675h0.159585c1.156987 0.505351 2.167688 0.837818 3.324675 1.32987 0.172883 0 0.332468 0.159584 0.332468 0.159585 1.170286 0.345766 2.327273 0.837818 3.497558 1.170285 0.159584 0 0.319169 0.159584 0.319169 0.159585 0.997403 0.345766 2.167688 0.664935 3.324675 1.010701 0.172883 0 0.505351 0.159584 0.664935 0.159584 0.997403 0.332468 1.994805 0.492052 2.992208 0.664936 0.345766 0 0.664935 0.159584 0.837818 0.159584l2.992208 0.505351c0.332468 0 0.664935 0.172883 0.997403 0.172883 0.997403 0.159584 1.994805 0.319169 2.992207 0.319169 0.332468 0 0.664935 0.172883 0.997403 0.172883 0.997403 0.159584 1.835221 0.159584 2.819325 0.159584 0.505351 0 0.997403 0 1.32987 0.172883 1.32987 0 2.832623 0.159584 4.162493 0.159585s2.819325 0 4.162494-0.159585c0.492052 0 0.997403 0 1.32987-0.172883 0.997403 0 1.821922-0.159584 2.819325-0.159584 0.332468 0 0.664935-0.159584 0.997402-0.159585 0.997403-0.172883 1.994805-0.172883 2.992208-0.332467 0.332468 0 0.664935-0.172883 0.997403-0.172883l2.992207-0.492052c0.332468 0 0.664935-0.172883 0.837819-0.172883 0.997403-0.172883 1.994805-0.505351 2.978909-0.664936 0.172883 0 0.505351-0.159584 0.664935-0.159584l3.324675-1.010701c0.172883 0 0.332468-0.159584 0.332468-0.159585 1.170286-0.332468 2.327273-0.664935 3.497558-1.156987 0.172883 0 0.332468-0.172883 0.332468-0.172883 1.156987-0.505351 2.15439-0.837818 3.324675-1.32987h0.159584c2.327273-0.997403 4.654545-2.167688 6.981819-3.324675a78.462338 78.462338 0 0 0 18.791064-14.13652v633.523533h-115.033766v-0.172883z"
        fill="#000000" p-id="1072"></path>
</svg>